<svg xmlns="http://www.w3.org/2000/svg" width="20.008" height="22.004" viewBox="0 0 20.008 22.004">
  <g id="Group_10" data-name="Group 10" transform="translate(-1.996 -1)">
    <path id="Path_14" data-name="Path 14" d="M12,14a1,1,0,0,1-1-1V10.022Q11,10,11,9.98V2a1,1,0,0,1,1.447-.894l8,4a1,1,0,0,1,0,1.789L13,10.618V13A1,1,0,0,1,12,14ZM13,3.618V8.382L17.764,6Z"/>
    <path id="Path_15" data-name="Path 15" d="M11.995,23A10,10,0,0,1,7.568,4.036a1,1,0,0,1,.887,1.793,8,8,0,1,0,11.156,4.7,1,1,0,1,1,1.9-.617A10.01,10.01,0,0,1,11.995,23Z"/>
    <path id="Path_16" data-name="Path 16" d="M12,19A6,6,0,0,1,7.2,9.4a1,1,0,0,1,1.6,1.2,4,4,0,1,0,7.12,1.616,1,1,0,1,1,1.961-.393A6.006,6.006,0,0,1,12,19Z"/>
  </g>
</svg>
