<svg width="24" height="23" viewBox="0 0 24 23" fill="none" xmlns="http://www.w3.org/2000/svg">
<path d="M18.4499 17.9884C15.8383 17.6388 14.063 15.7031 10.1902 15.8277C8.07207 15.8958 6.63542 15.9408 5.02195 14.8987C2.37906 13.1919 2.56373 9.5209 4.21731 7.42494C4.97452 6.46512 5.75796 5.74322 5.9683 4.38807C6.16002 3.15351 6.22866 2.56836 6.47449 1.99019C7.13203 0.442626 8.81893 -0.23546 10.0853 0.106033C15.436 1.54797 21.4938 -2.91584 21.9358 6.91564C22.0889 10.3241 23.378 10.8308 23.891 12.9174C24.7026 16.2187 20.7929 18.3022 18.4499 17.9884Z" fill="#C1E2F4"/>
<g clip-path="url(#clip0_901_42574)">
<path opacity="0.6" d="M11.0001 0.0195312C4.93479 0.0195312 0.000244141 4.95397 0.000244141 11.0192C0.000244141 17.0849 4.93479 22.0195 11.0001 22.0195C17.0654 22.0195 21.9998 17.0848 21.9998 11.0192C21.9998 4.95397 17.0654 0.0195312 11.0001 0.0195312Z" fill="white"/>
</g>
<g clip-path="url(#clip1_901_42574)">
<path d="M11.0001 0.0195312C4.93479 0.0195312 0.000244141 4.95397 0.000244141 11.0192C0.000244141 17.0849 4.93479 22.0195 11.0001 22.0195C17.0654 22.0195 21.9998 17.0848 21.9998 11.0192C21.9998 4.95397 17.0654 0.0195312 11.0001 0.0195312ZM11.0001 20.4427C5.80426 20.4427 1.57708 16.2153 1.57708 11.0192C1.57708 5.82344 5.80426 1.59637 11.0001 1.59637C16.1959 1.59637 20.423 5.82344 20.423 11.0192C20.423 16.2153 16.1959 20.4427 11.0001 20.4427Z" fill="#333333"/>
<path d="M16.656 10.8351H11.4867V5.18461C11.4867 4.7492 11.1339 4.39619 10.6983 4.39619C10.2629 4.39619 9.90991 4.7492 9.90991 5.18461V11.6236C9.90991 12.059 10.2629 12.412 10.6983 12.412H16.656C17.0916 12.412 17.4444 12.059 17.4444 11.6236C17.4444 11.1881 17.0914 10.8351 16.656 10.8351Z" fill="#333333"/>
</g>
<defs>
<clipPath id="clip0_901_42574">
<rect width="22" height="22" fill="white" transform="translate(0 0.0195312)"/>
</clipPath>
<clipPath id="clip1_901_42574">
<rect width="22" height="22" fill="white" transform="translate(0 0.0195312)"/>
</clipPath>
</defs>
</svg>
