<svg width="23" height="25" viewBox="0 0 23 25" fill="none" xmlns="http://www.w3.org/2000/svg">
<path d="M1.03571 18.7414C0.712554 16.2486 2.46294 13.8771 5.79209 13.4456C9.12124 13.014 11.424 9.271 14.1002 8.92408C19.3226 8.24707 21.5504 11.6092 21.9481 14.677C22.3458 17.7449 21.0489 21.5639 13.9335 22.4863C6.8182 23.4087 1.65716 23.5352 1.03571 18.7414Z" fill="#EFC6DF"/>
<path d="M8.11914 7.04688C8.53992 6.8374 9.01253 6.75488 9.47949 6.80859C9.94643 6.86233 10.3878 7.05007 10.75 7.34961L18.9395 14.1123V14.1074C19.2917 14.3981 19.5455 14.7909 19.666 15.2314C19.7865 15.6719 19.7684 16.1389 19.6133 16.5684C19.4581 16.9979 19.174 17.3691 18.7998 17.6309C18.4255 17.8927 17.9792 18.0318 17.5225 18.0303H14.5811C14.2857 18.0305 13.9941 18.0992 13.7295 18.2305C13.4649 18.3618 13.2345 18.5529 13.0557 18.7881L11.2822 21.1338C11.0776 21.4082 10.8118 21.6314 10.5059 21.7852C10.2001 21.9388 9.86271 22.0191 9.52051 22.0195C9.2932 22.0191 9.06661 21.9847 8.84961 21.917C8.4129 21.786 8.02789 21.522 7.74805 21.1621C7.46814 20.8019 7.30712 20.363 7.28809 19.9072L6.77441 9.3291C6.75371 8.85948 6.86979 8.3933 7.1084 7.98828C7.34701 7.58329 7.69835 7.25637 8.11914 7.04688ZM3.04395 7.91992C3.15487 7.91205 3.26659 7.92574 3.37207 7.96094C3.47753 7.99616 3.57524 8.05209 3.65918 8.125C3.74312 8.19794 3.81171 8.2872 3.86133 8.38672C3.9614 8.58734 3.97813 8.81955 3.90723 9.03223C3.83616 9.245 3.68308 9.4212 3.48242 9.52148L1.22559 10.6504C1.10842 10.7093 0.978806 10.7396 0.847656 10.7393C0.656883 10.7395 0.470978 10.6749 0.321289 10.5566C0.171838 10.4384 0.0663604 10.2733 0.0224609 10.0879C-0.0214374 9.90224 -0.000790827 9.70696 0.0800781 9.53418C0.160891 9.36154 0.297284 9.22098 0.467773 9.13574L2.72461 8.00781C2.82409 7.958 2.93297 7.92782 3.04395 7.91992ZM1.78906 2.88086C1.90068 2.89563 2.00829 2.9324 2.10547 2.98926L4.3623 4.25098C4.45992 4.30508 4.5459 4.37837 4.61523 4.46582C4.68447 4.55322 4.73622 4.65346 4.7666 4.76074C4.79694 4.86798 4.80512 4.98015 4.79199 5.09082C4.77881 5.20162 4.74418 5.30902 4.68945 5.40625C4.61614 5.53786 4.50887 5.64744 4.37891 5.72363C4.24872 5.79984 4.10006 5.84036 3.94922 5.83984C3.80487 5.83841 3.6629 5.79909 3.53809 5.72656L1.28223 4.46777C1.18285 4.41511 1.09469 4.34287 1.02344 4.25586C0.952137 4.16868 0.898156 4.06796 0.866211 3.95996C0.834303 3.85207 0.824567 3.73878 0.836914 3.62695C0.849327 3.515 0.883648 3.40601 0.938477 3.30762C0.993292 3.20927 1.06762 3.12314 1.15625 3.05371C1.2449 2.98428 1.34645 2.93298 1.45508 2.90332C1.56374 2.87366 1.6774 2.86609 1.78906 2.88086ZM14.0098 2.36523C14.2103 2.26704 14.4418 2.25265 14.6533 2.32422C14.8647 2.39579 15.0399 2.54741 15.1396 2.74707C15.2394 2.94686 15.2555 3.17854 15.1855 3.39062C15.1156 3.60262 14.9646 3.77861 14.7656 3.87988L12.5088 5.00781C12.3916 5.06673 12.262 5.09802 12.1309 5.09766C11.9739 5.09734 11.82 5.05319 11.6865 4.9707C11.5528 4.88802 11.4445 4.76943 11.374 4.62891C11.2738 4.42811 11.257 4.19529 11.3281 3.98242C11.3992 3.76978 11.5524 3.59438 11.7529 3.49414L14.0098 2.36523ZM7.61719 0.0195312C7.84163 0.0195312 8.05711 0.108883 8.21582 0.267578C8.37453 0.426287 8.46387 0.641762 8.46387 0.866211V3.12305C8.46374 3.34731 8.3744 3.56211 8.21582 3.7207C8.05711 3.87941 7.84164 3.96875 7.61719 3.96875C7.39291 3.96863 7.17813 3.8793 7.01953 3.7207C6.86093 3.56211 6.77161 3.34732 6.77148 3.12305V0.866211C6.77148 0.641762 6.86082 0.426287 7.01953 0.267578C7.17813 0.109017 7.39293 0.019648 7.61719 0.0195312Z" fill="white" fill-opacity="0.6"/>
<path d="M8.11914 7.04688C8.53992 6.8374 9.01253 6.75488 9.47949 6.80859C9.94643 6.86233 10.3878 7.05007 10.75 7.34961L18.9395 14.1123V14.1074C19.2917 14.3981 19.5455 14.7909 19.666 15.2314C19.7865 15.6719 19.7684 16.1389 19.6133 16.5684C19.4581 16.9979 19.174 17.3691 18.7998 17.6309C18.4255 17.8927 17.9792 18.0318 17.5225 18.0303H14.5811C14.2857 18.0305 13.9941 18.0992 13.7295 18.2305C13.4649 18.3618 13.2345 18.5529 13.0557 18.7881L11.2822 21.1338C11.0776 21.4082 10.8118 21.6314 10.5059 21.7852C10.2001 21.9388 9.86271 22.0191 9.52051 22.0195C9.2932 22.0191 9.06661 21.9847 8.84961 21.917C8.4129 21.786 8.02789 21.522 7.74805 21.1621C7.46814 20.8019 7.30712 20.363 7.28809 19.9072L6.77441 9.3291C6.75371 8.85948 6.86979 8.3933 7.1084 7.98828C7.34701 7.58329 7.69835 7.25637 8.11914 7.04688ZM3.04395 7.91992C3.15487 7.91205 3.26659 7.92574 3.37207 7.96094C3.47753 7.99616 3.57524 8.05209 3.65918 8.125C3.74312 8.19794 3.81171 8.2872 3.86133 8.38672C3.9614 8.58734 3.97813 8.81955 3.90723 9.03223C3.83616 9.245 3.68308 9.4212 3.48242 9.52148L1.22559 10.6504C1.10842 10.7093 0.978806 10.7396 0.847656 10.7393C0.656883 10.7395 0.470978 10.6749 0.321289 10.5566C0.171838 10.4384 0.0663604 10.2733 0.0224609 10.0879C-0.0214374 9.90224 -0.000790827 9.70696 0.0800781 9.53418C0.160891 9.36154 0.297284 9.22098 0.467773 9.13574L2.72461 8.00781C2.82409 7.958 2.93297 7.92782 3.04395 7.91992ZM1.78906 2.88086C1.90068 2.89563 2.00829 2.9324 2.10547 2.98926L4.3623 4.25098C4.45992 4.30508 4.5459 4.37837 4.61523 4.46582C4.68447 4.55322 4.73622 4.65346 4.7666 4.76074C4.79694 4.86798 4.80512 4.98015 4.79199 5.09082C4.77881 5.20162 4.74418 5.30902 4.68945 5.40625C4.61614 5.53786 4.50887 5.64744 4.37891 5.72363C4.24872 5.79984 4.10006 5.84036 3.94922 5.83984C3.80487 5.83841 3.6629 5.79909 3.53809 5.72656L1.28223 4.46777C1.18285 4.41511 1.09469 4.34287 1.02344 4.25586C0.952137 4.16868 0.898156 4.06796 0.866211 3.95996C0.834303 3.85207 0.824567 3.73878 0.836914 3.62695C0.849327 3.515 0.883648 3.40601 0.938477 3.30762C0.993292 3.20927 1.06762 3.12314 1.15625 3.05371C1.2449 2.98428 1.34645 2.93298 1.45508 2.90332C1.56374 2.87366 1.6774 2.86609 1.78906 2.88086ZM14.0098 2.36523C14.2103 2.26704 14.4418 2.25265 14.6533 2.32422C14.8647 2.39579 15.0399 2.54741 15.1396 2.74707C15.2394 2.94686 15.2555 3.17854 15.1855 3.39062C15.1156 3.60262 14.9646 3.77861 14.7656 3.87988L12.5088 5.00781C12.3916 5.06673 12.262 5.09802 12.1309 5.09766C11.9739 5.09734 11.82 5.05319 11.6865 4.9707C11.5528 4.88802 11.4445 4.76943 11.374 4.62891C11.2738 4.42811 11.257 4.19529 11.3281 3.98242C11.3992 3.76978 11.5524 3.59438 11.7529 3.49414L14.0098 2.36523ZM7.61719 0.0195312C7.84163 0.0195312 8.05711 0.108883 8.21582 0.267578C8.37453 0.426287 8.46387 0.641762 8.46387 0.866211V3.12305C8.46374 3.34731 8.3744 3.56211 8.21582 3.7207C8.05711 3.87941 7.84164 3.96875 7.61719 3.96875C7.39291 3.96863 7.17813 3.8793 7.01953 3.7207C6.86093 3.56211 6.77161 3.34732 6.77148 3.12305V0.866211C6.77148 0.641762 6.86082 0.426287 7.01953 0.267578C7.17813 0.109017 7.39293 0.019648 7.61719 0.0195312Z" stroke="#333333"/>
<path d="M8.3418 7.49414C8.67586 7.32784 9.05114 7.26212 9.42188 7.30469C9.79274 7.34735 10.144 7.49647 10.4316 7.73438V7.73535L18.6211 14.4971L18.6807 14.5459C18.9223 14.7648 19.0982 15.0478 19.1846 15.3633C19.2778 15.7043 19.2627 16.0659 19.1426 16.3984C19.0224 16.731 18.8024 17.018 18.5127 17.2207C18.223 17.4234 17.878 17.5314 17.5244 17.5303H14.5801C14.2078 17.5306 13.8403 17.6177 13.5068 17.7832C13.1734 17.9488 12.8826 18.189 12.6572 18.4854L12.6562 18.4863L10.8838 20.832L10.8818 20.835C10.7237 21.0472 10.5177 21.219 10.2812 21.3379C10.0448 21.4567 9.78415 21.5182 9.51953 21.5186C9.34299 21.5181 9.16757 21.492 8.99902 21.4395L8.99316 21.4375C8.65596 21.3363 8.35861 21.1325 8.14258 20.8545C7.92666 20.5765 7.80285 20.2384 7.78809 19.8867L7.78711 19.8828L7.27441 9.30469C7.25837 8.93241 7.34992 8.56327 7.53906 8.24219C7.72856 7.92053 8.0076 7.66053 8.3418 7.49414ZM9.33984 7.99121C9.15902 7.97092 8.97652 7.99165 8.80566 8.0498L8.64941 8.11523C8.43342 8.2202 8.25345 8.38666 8.13184 8.59375C8.011 8.79954 7.95324 9.03617 7.96582 9.27441V9.27539L8.47852 19.8398V19.8408C8.48365 20.0564 8.55787 20.2654 8.69043 20.4355C8.8168 20.5977 8.99063 20.7146 9.18652 20.7754V20.7773C9.1909 20.7788 9.1958 20.7788 9.2002 20.7803C9.2052 20.7817 9.20981 20.7847 9.21484 20.7861V20.7842C9.41302 20.8458 9.62508 20.8474 9.82324 20.7842C10.0268 20.7192 10.2035 20.5908 10.3301 20.4189L10.3311 20.4199L12.1035 18.0742L12.1025 18.0732C12.3931 17.6915 12.7686 17.3825 13.1982 17.1689C13.5745 16.9819 13.9841 16.8735 14.4023 16.8486L14.582 16.8428L17.5225 16.8418C17.7344 16.8452 17.9421 16.7826 18.1162 16.6611C18.2889 16.5407 18.4178 16.3689 18.4883 16.1709L18.4902 16.1719C18.4917 16.1681 18.4918 16.1639 18.4932 16.1602C18.4941 16.1574 18.4962 16.1551 18.4971 16.1523L18.4951 16.1514C18.5645 15.9568 18.5734 15.7461 18.5176 15.5469C18.4612 15.3455 18.3427 15.1678 18.1797 15.0371L18.1807 15.0361L9.99023 8.26953C9.8052 8.11532 9.57926 8.01813 9.33984 7.99121ZM3.0791 8.41895C3.12451 8.41571 3.17068 8.42114 3.21387 8.43555C3.25692 8.44996 3.29678 8.47316 3.33105 8.50293C3.36532 8.53274 3.39379 8.56873 3.41406 8.60938C3.45506 8.6915 3.46165 8.78696 3.43262 8.87402C3.41078 8.9394 3.37007 8.99644 3.31641 9.03809L3.25879 9.07422L1.00195 10.2031H1.00098C0.953838 10.2268 0.901397 10.2394 0.848633 10.2393H0.84668C0.768795 10.2393 0.69301 10.2132 0.631836 10.165C0.570648 10.1167 0.52776 10.0485 0.509766 9.97266C0.49182 9.89676 0.499212 9.81675 0.532227 9.74609C0.557004 9.69315 0.594939 9.64745 0.641602 9.61328L0.691406 9.58301L2.94824 8.4541H2.94922C2.98975 8.43388 3.03392 8.42219 3.0791 8.41895ZM1.72363 3.37695C1.76912 3.383 1.81292 3.39777 1.85254 3.4209L1.86133 3.42578L4.11816 4.6875L4.12012 4.68848C4.15997 4.7106 4.19531 4.74065 4.22363 4.77637C4.25181 4.81199 4.27273 4.85279 4.28516 4.89648C4.2976 4.94043 4.30129 4.98688 4.2959 5.03223C4.29049 5.07753 4.27629 5.12138 4.25391 5.16113L4.25293 5.16309C4.22301 5.2168 4.17904 5.26191 4.12598 5.29297C4.07329 5.32378 4.01317 5.33886 3.95215 5.33887C3.8952 5.33796 3.83933 5.32348 3.79004 5.29492L3.78223 5.29004L1.52539 4.03125L1.51562 4.02539C1.47518 4.00389 1.43919 3.97487 1.41016 3.93945C1.38103 3.90383 1.35878 3.86247 1.3457 3.81836C1.33263 3.77416 1.32891 3.72745 1.33398 3.68164C1.33907 3.63585 1.35355 3.59103 1.37598 3.55078C1.39838 3.51075 1.42872 3.47556 1.46484 3.44727C1.50109 3.41891 1.54252 3.39786 1.58691 3.38574C1.63136 3.37362 1.67796 3.37091 1.72363 3.37695ZM14.2295 2.81445C14.3116 2.77427 14.4066 2.76857 14.4932 2.79785C14.5795 2.82714 14.6506 2.88917 14.6914 2.9707C14.7322 3.05245 14.7395 3.14759 14.7109 3.23438C14.6826 3.31995 14.6219 3.39101 14.542 3.43262L12.2852 4.56055L12.2842 4.56152C12.2372 4.58509 12.1854 4.59776 12.1328 4.59766H12.1318C12.0673 4.59752 12.0041 4.57886 11.9492 4.54492C11.9218 4.52797 11.8965 4.50792 11.875 4.48438L11.8213 4.40527C11.7805 4.32327 11.7738 4.22852 11.8027 4.1416C11.8246 4.07624 11.8653 4.01918 11.9189 3.97754L11.9766 3.94141L14.2295 2.81445ZM7.61719 0.519531C7.70902 0.519531 7.79737 0.556167 7.8623 0.621094C7.92725 0.686036 7.96387 0.774372 7.96387 0.866211V3.12305C7.96374 3.2147 7.92712 3.30236 7.8623 3.36719C7.79736 3.43213 7.70903 3.46875 7.61719 3.46875C7.52551 3.46863 7.43788 3.43201 7.37305 3.36719C7.30822 3.30236 7.27161 3.21472 7.27148 3.12305V0.866211C7.27148 0.774371 7.30811 0.686035 7.37305 0.621094C7.43788 0.556301 7.52554 0.519648 7.61719 0.519531Z" fill="black" stroke="#333333"/>
</svg>
