<svg width="29" height="25" viewBox="0 0 29 25" fill="none" xmlns="http://www.w3.org/2000/svg">
<path d="M9.821 7.742C12.0863 7.11451 14.4796 7.49842 16.8211 7.91674C19.3376 8.3664 21.8959 8.91183 24.3118 9.76147C25.3504 10.1267 26.2537 10.7082 26.8174 11.6917C27.3262 12.5797 28.0796 15.3704 24.8876 17.1208C19.3676 20.1478 14.4216 22.0275 8.77829 23.5277C5.27997 24.4577 3.14307 22.9532 2.47054 21.9616C1.2449 20.1548 1.84931 18.0816 2.79446 16.1613C3.33068 15.0721 5.64504 11.4635 6.26235 10.7274C7.54779 9.19487 8.03701 8.23628 9.821 7.742Z" fill="#FAEDCC"/>
<g clip-path="url(#clip0_901_42533)">
<path opacity="0.6" d="M21.7209 17.5195V8.01953H4.22086C4.05419 10.3529 3.82086 15.7195 4.22086 18.5195C4.72086 22.0195 10.7209 20.5195 16.2209 20.5195C21.7209 20.5195 19.7209 19.5195 20.7209 19.5195C21.5209 19.5195 21.7209 18.1862 21.7209 17.5195Z" fill="white"/>
<path d="M8.89716 4.60993C8.47665 4.60993 8.12793 4.26121 8.12793 3.8407V0.763776C8.12793 0.343263 8.47665 -0.00545502 8.89716 -0.00545502C9.31767 -0.00545502 9.66639 0.343263 9.66639 0.763776V3.8407C9.66639 4.26121 9.31767 4.60993 8.89716 4.60993Z" fill="#333333"/>
<path d="M17.103 4.60993C16.6825 4.60993 16.3337 4.26121 16.3337 3.8407V0.763776C16.3337 0.343263 16.6825 -0.00545502 17.103 -0.00545502C17.5235 -0.00545502 17.8722 0.343263 17.8722 0.763776V3.8407C17.8722 4.26121 17.5235 4.60993 17.103 4.60993Z" fill="#333333"/>
<path d="M9.41016 13.5851C9.27683 13.5851 9.1435 13.5544 9.02042 13.5031C8.88709 13.4518 8.78452 13.38 8.68196 13.2877C8.49734 13.0928 8.38452 12.8364 8.38452 12.5595C8.38452 12.4262 8.41529 12.2928 8.46657 12.1698C8.51785 12.0467 8.58965 11.9339 8.68196 11.8313C8.78452 11.739 8.88709 11.6672 9.02042 11.6159C9.38965 11.4621 9.85119 11.5441 10.1384 11.8313C10.323 12.0262 10.4358 12.2928 10.4358 12.5595C10.4358 12.621 10.4255 12.6928 10.4153 12.7646C10.405 12.8262 10.3845 12.8877 10.3538 12.9492C10.3332 13.0108 10.3025 13.0723 10.2614 13.1339C10.2307 13.1851 10.1794 13.2364 10.1384 13.2877C9.9435 13.4723 9.67683 13.5851 9.41016 13.5851Z" fill="#333333"/>
<path d="M12.9995 13.5831C12.8662 13.5831 12.7329 13.5524 12.6098 13.5011C12.4764 13.4498 12.3739 13.378 12.2713 13.2857C12.0867 13.0908 11.9739 12.8344 11.9739 12.5575C11.9739 12.4242 12.0046 12.2908 12.0559 12.1678C12.1072 12.0447 12.179 11.9319 12.2713 11.8293C12.3739 11.737 12.4764 11.6652 12.6098 11.6139C12.979 11.4498 13.4405 11.5421 13.7277 11.8293C13.9123 12.0242 14.0252 12.2908 14.0252 12.5575C14.0252 12.619 14.0149 12.6908 14.0046 12.7626C13.9944 12.8242 13.9739 12.8857 13.9431 12.9473C13.9226 13.0088 13.8918 13.0703 13.8508 13.1319C13.82 13.1831 13.7687 13.2344 13.7277 13.2857C13.5329 13.4703 13.2662 13.5831 12.9995 13.5831Z" fill="#333333"/>
<path d="M16.5901 13.5831C16.4568 13.5831 16.3234 13.5524 16.2004 13.5011C16.067 13.4498 15.9645 13.378 15.8619 13.2857C15.8209 13.2344 15.7798 13.1831 15.7388 13.1319C15.6978 13.0703 15.667 13.0088 15.6465 12.9473C15.6157 12.8857 15.5952 12.8242 15.585 12.7626C15.5747 12.6908 15.5645 12.619 15.5645 12.5575C15.5645 12.2908 15.6773 12.0242 15.8619 11.8293C15.9645 11.737 16.067 11.6652 16.2004 11.6139C16.5798 11.4498 17.0311 11.5421 17.3183 11.8293C17.5029 12.0242 17.6157 12.2908 17.6157 12.5575C17.6157 12.619 17.6055 12.6908 17.5952 12.7626C17.585 12.8242 17.5645 12.8857 17.5337 12.9473C17.5132 13.0088 17.4824 13.0703 17.4414 13.1319C17.4106 13.1831 17.3593 13.2344 17.3183 13.2857C17.1234 13.4703 16.8568 13.5831 16.5901 13.5831Z" fill="#333333"/>
<path d="M9.41016 17.1749C9.27683 17.1749 9.1435 17.1443 9.02042 17.093C8.89734 17.0417 8.78452 16.9698 8.68196 16.8775C8.49734 16.6826 8.38452 16.416 8.38452 16.1493C8.38452 16.016 8.41529 15.8826 8.46657 15.7596C8.51785 15.6262 8.58965 15.5135 8.68196 15.4212C9.06144 15.0417 9.75888 15.0417 10.1384 15.4212C10.323 15.6161 10.4358 15.8826 10.4358 16.1493C10.4358 16.416 10.323 16.6826 10.1384 16.8775C9.9435 17.0621 9.67683 17.1749 9.41016 17.1749Z" fill="#333333"/>
<path d="M12.9995 17.1749C12.7329 17.1749 12.4662 17.0621 12.2713 16.8775C12.0867 16.6826 11.9739 16.416 11.9739 16.1493C11.9739 16.016 12.0046 15.8826 12.0559 15.7596C12.1072 15.6262 12.179 15.5135 12.2713 15.4212C12.6508 15.0417 13.3482 15.0417 13.7277 15.4212C13.82 15.5135 13.8918 15.6262 13.9431 15.7596C13.9944 15.8826 14.0252 16.016 14.0252 16.1493C14.0252 16.416 13.9123 16.6826 13.7277 16.8775C13.5329 17.0621 13.2662 17.1749 12.9995 17.1749Z" fill="#333333"/>
<path d="M16.5901 17.1735C16.3234 17.1735 16.0568 17.0607 15.8619 16.876C15.7696 16.7837 15.6978 16.6709 15.6465 16.5376C15.5952 16.4145 15.5645 16.2812 15.5645 16.1478C15.5645 16.0145 15.5952 15.8812 15.6465 15.7581C15.6978 15.6248 15.7696 15.5119 15.8619 15.4196C16.0978 15.1837 16.4568 15.0709 16.785 15.1427C16.8568 15.153 16.9183 15.1735 16.9798 15.2042C17.0414 15.2248 17.1029 15.2555 17.1645 15.2966C17.2157 15.3273 17.267 15.3786 17.3183 15.4196C17.5029 15.6145 17.6157 15.8812 17.6157 16.1478C17.6157 16.4145 17.5029 16.6812 17.3183 16.876C17.1234 17.0607 16.8568 17.1735 16.5901 17.1735Z" fill="#333333"/>
<path d="M21.7176 8.80354H4.28168C3.86117 8.80354 3.51245 8.45482 3.51245 8.03431C3.51245 7.61379 3.86117 7.26508 4.28168 7.26508H21.7176C22.1381 7.26508 22.4868 7.61379 22.4868 8.03431C22.4868 8.45482 22.1381 8.80354 21.7176 8.80354Z" fill="#333333"/>
<path d="M17.1026 22.0458H8.89744C5.15385 22.0458 3 19.892 3 16.1484V7.43044C3 3.68685 5.15385 1.533 8.89744 1.533H17.1026C20.8462 1.533 23 3.68685 23 7.43044V16.1484C23 19.892 20.8462 22.0458 17.1026 22.0458ZM8.89744 3.07147C5.9641 3.07147 4.53846 4.49711 4.53846 7.43044V16.1484C4.53846 19.0817 5.9641 20.5074 8.89744 20.5074H17.1026C20.0359 20.5074 21.4615 19.0817 21.4615 16.1484V7.43044C21.4615 4.49711 20.0359 3.07147 17.1026 3.07147H8.89744Z" fill="#333333"/>
</g>
<defs>
<clipPath id="clip0_901_42533">
<rect width="22" height="22" fill="white" transform="translate(2 0.0195312)"/>
</clipPath>
</defs>
</svg>
