<svg width="26" height="25" viewBox="0 0 26 25" fill="none" xmlns="http://www.w3.org/2000/svg">
<path d="M19.9267 19.574C19.7007 19.7919 19.4803 20.0098 19.2699 20.2291C16.5309 23.0839 11.0258 25.1317 6.72867 22.3459C4.22314 20.7216 1.58666 18.7345 1.01477 16.206C0.657062 14.6245 1.19217 13.0986 1.93791 11.7539C2.61839 10.527 3.49474 9.37404 4.72124 8.54164C7.92681 6.36597 12.7717 6.75699 17.1706 7.23949C18.8284 7.42134 20.5869 7.63769 22 8.5448C24.2403 9.98292 24.8023 12.7378 23.9802 14.7613C23.21 16.6569 21.4399 18.1156 19.9267 19.574Z" fill="#BEE2D5"/>
<g opacity="0.6" clip-path="url(#clip0_901_42554)">
<path d="M15.714 11.6792C14.7241 10.1348 13.038 9.21266 11.2038 9.21266C9.36974 9.21266 7.68355 10.1348 6.69376 11.6792L4.30832 15.4005C3.91254 16.018 3.72993 16.7312 3.78011 17.4628C3.8303 18.1946 4.10876 18.8761 4.58527 19.4339C5.06212 19.9914 5.69222 20.3725 6.40742 20.5359C7.12261 20.6992 7.85576 20.6296 8.52749 20.3343L8.57129 20.3149C10.2617 19.5863 12.1938 19.5928 13.8799 20.3343C14.3148 20.5255 14.7756 20.6222 15.2405 20.6222C15.4933 20.6222 15.7476 20.5935 15.9995 20.5361C16.7147 20.3728 17.3448 19.9918 17.8218 19.4342C18.2985 18.8766 18.5771 18.195 18.6275 17.4632C18.6778 16.7312 18.4952 16.018 18.0994 15.4003L15.714 11.6792Z" fill="white"/>
<path d="M4.95081 11.6743C5.66046 11.4017 6.19959 10.8299 6.46898 10.064C6.72512 9.33519 6.70413 8.51241 6.40956 7.74703C6.11482 6.98215 5.57872 6.35776 4.90012 5.98867C4.18694 5.60111 3.4036 5.538 2.69512 5.81108C1.26976 6.3591 0.615664 8.12049 1.2372 9.73836C1.73369 11.0261 2.89167 11.839 4.0624 11.839C4.36133 11.839 4.6611 11.7859 4.95081 11.6743Z" fill="white"/>
<path d="M9.57936 8.7588C11.3612 8.7588 12.8109 7.10719 12.8109 5.07709C12.8109 3.04648 11.3612 1.39453 9.57936 1.39453C7.79767 1.39453 6.34814 3.04648 6.34814 5.07709C6.34814 7.10719 7.79767 8.7588 9.57936 8.7588Z" fill="white"/>
<path d="M15.1602 9.66333C15.4343 9.7543 15.7141 9.79777 15.9925 9.79777C17.292 9.79777 18.5584 8.85196 19.0416 7.39841C19.3199 6.56169 19.3016 5.67697 18.9901 4.90739C18.6641 4.1019 18.0601 3.51712 17.289 3.26065C16.5179 3.00452 15.6835 3.11127 14.9401 3.56143C14.23 3.99162 13.6858 4.68919 13.408 5.52591C12.8214 7.29098 13.6074 9.14703 15.1602 9.66333Z" fill="white"/>
<path d="M21.9655 9.23365C20.7367 8.32593 18.8984 8.71886 17.868 10.1106C16.8386 11.5031 16.9996 13.3751 18.2265 14.2835C18.674 14.615 19.2027 14.7734 19.7439 14.7734C20.687 14.7734 21.6682 14.292 22.324 13.4068C23.3534 12.0144 23.1926 10.1424 21.9655 9.23365Z" fill="white"/>
</g>
<g clip-path="url(#clip1_901_42554)">
<path d="M15.714 11.6792C14.7241 10.1348 13.038 9.21266 11.2038 9.21266C9.36974 9.21266 7.68355 10.1348 6.69376 11.6792L4.30832 15.4005C3.91254 16.018 3.72993 16.7312 3.78011 17.4628C3.8303 18.1946 4.10876 18.8761 4.58527 19.4339C5.06212 19.9914 5.69222 20.3725 6.40742 20.5359C7.12261 20.6992 7.85576 20.6296 8.52749 20.3343L8.57129 20.3149C10.2617 19.5863 12.1938 19.5928 13.8799 20.3343C14.3148 20.5255 14.7756 20.6222 15.2405 20.6222C15.4933 20.6222 15.7476 20.5935 15.9995 20.5361C16.7147 20.3728 17.3448 19.9918 17.8218 19.4342C18.2985 18.8766 18.5771 18.195 18.6275 17.4632C18.6778 16.7312 18.4952 16.018 18.0994 15.4003L15.714 11.6792ZM16.8418 18.596C16.235 19.3053 15.2534 19.5295 14.3991 19.1539C13.3836 18.7072 12.2936 18.484 11.2033 18.484C10.114 18.484 9.02415 18.7071 8.00934 19.1532L7.98047 19.166C7.13268 19.5245 6.16555 19.2974 5.5655 18.596C4.9594 17.8865 4.89042 16.8821 5.39396 16.0964L7.77956 12.3751C8.53118 11.2025 9.81118 10.5024 11.2038 10.5024C12.5964 10.5024 13.8766 11.2025 14.6284 12.3751L17.0136 16.0962C17.5174 16.8822 17.4482 17.8868 16.8418 18.596Z" fill="#333333"/>
<path d="M4.95081 11.6743C5.66046 11.4017 6.19959 10.8299 6.46898 10.064C6.72511 9.33519 6.70413 8.51241 6.40956 7.74703C6.11482 6.98215 5.57872 6.35776 4.90012 5.98867C4.18694 5.60111 3.4036 5.538 2.69512 5.81108C1.26976 6.3591 0.615664 8.12049 1.2372 9.73836C1.73369 11.0261 2.89167 11.839 4.0624 11.839C4.36133 11.839 4.6611 11.7859 4.95081 11.6743ZM2.44066 9.2751C2.07442 8.32173 2.39618 7.3076 3.15837 7.01454C3.29601 6.9615 3.44153 6.93515 3.59008 6.93515C3.81935 6.93515 4.05619 6.99776 4.28412 7.1218C4.694 7.34453 5.02147 7.73125 5.2061 8.21045C5.39057 8.68999 5.40701 9.19621 5.25226 9.63614C5.11043 10.0393 4.83902 10.3357 4.48822 10.4705L4.48755 10.4708C3.72637 10.7642 2.80808 10.2276 2.44066 9.2751Z" fill="#333333"/>
<path d="M9.57936 8.7588C11.3612 8.7588 12.8109 7.10719 12.8109 5.07709C12.8109 3.04648 11.3612 1.39453 9.57936 1.39453C7.79767 1.39453 6.34814 3.04648 6.34814 5.07709C6.34814 7.10719 7.79767 8.7588 9.57936 8.7588ZM9.57936 2.6841C10.6501 2.6841 11.5213 3.75764 11.5213 5.07709C11.5213 6.39603 10.6501 7.46924 9.57936 7.46924C8.50867 7.46924 7.63771 6.39603 7.63771 5.07709C7.63771 3.75764 8.50867 2.6841 9.57936 2.6841Z" fill="#333333"/>
<path d="M15.1602 9.66333H15.1603C15.4344 9.7543 15.7141 9.79777 15.9925 9.79777C17.292 9.79777 18.5584 8.85196 19.0416 7.39841C19.3199 6.56169 19.3016 5.67697 18.9901 4.90739C18.6641 4.1019 18.0601 3.51712 17.289 3.26065C16.5179 3.00452 15.6835 3.11127 14.9401 3.56143C14.23 3.99162 13.6858 4.68919 13.408 5.52591C12.8214 7.29098 13.6074 9.14703 15.1602 9.66333ZM14.6318 5.9326C14.8132 5.38626 15.16 4.93609 15.6083 4.66452C16.0231 4.41325 16.4756 4.3493 16.8823 4.48442C17.2888 4.6197 17.6128 4.94163 17.7947 5.39113C17.9912 5.87688 17.9996 6.4452 17.8179 6.99154C17.4555 8.08188 16.4457 8.73144 15.567 8.43956C14.689 8.1475 14.2694 7.02293 14.6318 5.9326Z" fill="#333333"/>
<path d="M21.9655 9.23365L21.965 9.23314C20.7362 8.32543 18.8984 8.71886 17.868 10.1106C16.8386 11.5031 16.9996 13.3751 18.2265 14.2835C18.674 14.615 19.2027 14.7734 19.7439 14.7734C20.687 14.7734 21.6682 14.292 22.324 13.4068C23.3534 12.0144 23.1926 10.1424 21.9655 9.23365ZM21.2875 12.6396C20.6791 13.4609 19.6504 13.7333 18.9939 13.247C18.338 12.7614 18.298 11.6983 18.9048 10.8775C19.3081 10.3327 19.8973 10.0296 20.4403 10.0296C20.7149 10.0296 20.9777 10.1071 21.1986 10.2704C21.854 10.7565 21.8938 11.8193 21.2875 12.6396Z" fill="#333333"/>
</g>
<defs>
<clipPath id="clip0_901_42554">
<rect width="22" height="22" fill="white" transform="translate(1.0022 0.0195312)"/>
</clipPath>
<clipPath id="clip1_901_42554">
<rect width="22" height="22" fill="white" transform="translate(1.0022 0.0195312)"/>
</clipPath>
</defs>
</svg>
