<svg xmlns="http://www.w3.org/2000/svg" width="22.014" height="21.997" viewBox="0 0 22.014 21.997">
  <g id="Group_11" data-name="Group 11" transform="translate(-0.993 -1)">
    <path id="Path_17" data-name="Path 17" d="M12,13a1,1,0,0,1-1-1V8.022Q11,8,11,7.98V2a1,1,0,0,1,1.447-.894l6,3a1,1,0,0,1,0,1.789L13,8.618V12A1,1,0,0,1,12,13Zm1-9.382V6.382L15.764,5Z"/>
    <path id="Path_18" data-name="Path 18" d="M12,23a3,3,0,0,1-1.5-.4L2,17.738a2,2,0,0,1,0-3.478l5.5-3.138A1,1,0,1,1,8.5,12.858L3,16l8.5,4.863a1,1,0,0,0,1,0L21,16l-5.5-3.133a1,1,0,1,1,.989-1.738l5.5,3.13a2,2,0,0,1,0,3.479L13.5,22.6A2.991,2.991,0,0,1,12,23Z"/>
    <path id="Path_19" data-name="Path 19" d="M17.509,20.15a1,1,0,0,1-.5-.132l-11.02-6.3a1,1,0,0,1,.993-1.736l11.02,6.3a1,1,0,0,1-.5,1.868Z"/>
    <path id="Path_20" data-name="Path 20" d="M6.5,20.15A1,1,0,0,1,6,18.282l11.01-6.3a1,1,0,1,1,.993,1.736L7,20.018A1,1,0,0,1,6.5,20.15Z"/>
  </g>
</svg>
