<svg xmlns="http://www.w3.org/2000/svg" width="21.999" height="22" viewBox="0 0 21.999 22">
  <g id="Group_9" data-name="Group 9" transform="translate(-1 -1)">
    <path id="Path_8" data-name="Path 8" d="M18,23H6a3,3,0,0,1-3-3V4A3,3,0,0,1,6,1h7.4a1,1,0,0,1,0,2H6A1,1,0,0,0,5,4V20a1,1,0,0,0,1,1H18a1,1,0,0,0,1-1V12.6a1,1,0,1,1,2,0V20A3,3,0,0,1,18,23Z"/>
    <path id="Path_9" data-name="Path 9" d="M6,7H2A1,1,0,0,1,2,5H6A1,1,0,0,1,6,7Z"/>
    <path id="Path_10" data-name="Path 10" d="M6,11H2A1,1,0,0,1,2,9H6a1,1,0,0,1,0,2Z"/>
    <path id="Path_11" data-name="Path 11" d="M6,15H2a1,1,0,0,1,0-2H6a1,1,0,0,1,0,2Z"/>
    <path id="Path_12" data-name="Path 12" d="M6,19H2a1,1,0,0,1,0-2H6a1,1,0,0,1,0,2Z"/>
    <path id="Path_13" data-name="Path 13" d="M19.876,1a3.124,3.124,0,0,1,2.209,5.333l-5.013,5.009a3.008,3.008,0,0,1-1.281.759l-2.87.837a1.5,1.5,0,0,1-1.86-1.86l.837-2.87a3.009,3.009,0,0,1,.759-1.281l5.01-5.012A3.1,3.1,0,0,1,19.876,1Zm-6.64,9.763,1.995-.582a1,1,0,0,0,.427-.253l5.013-5.009a1.124,1.124,0,0,0-1.59-1.59l-5.01,5.012a1,1,0,0,0-.253.427Z"/>
  </g>
</svg>
