<svg xmlns="http://www.w3.org/2000/svg" width="22" height="20" viewBox="0 0 22 20">
  <g id="Group_7" data-name="Group 7" transform="translate(-1 -1)">
    <path id="Path_3" data-name="Path 3" d="M12.01,13H12a1,1,0,0,1,0-2h.01a1,1,0,0,1,0,2Z"/>
    <path id="Path_4" data-name="Path 4" d="M16,7a1,1,0,0,1-1-1V4a1,1,0,0,0-1-1H10A1,1,0,0,0,9,4V6A1,1,0,0,1,7,6V4a3,3,0,0,1,3-3h4a3,3,0,0,1,3,3V6A1,1,0,0,1,16,7Z"/>
    <path id="Path_5" data-name="Path 5" d="M12,17.008A19.128,19.128,0,0,1,1.449,13.835a1,1,0,1,1,1.1-1.669,17.128,17.128,0,0,0,18.9,0,1,1,0,1,1,1.1,1.669A19.128,19.128,0,0,1,12,17.008Z"/>
    <path id="Rectangle_1" data-name="Rectangle 1" d="M2-1H18a3,3,0,0,1,3,3V12a3,3,0,0,1-3,3H2a3,3,0,0,1-3-3V2A3,3,0,0,1,2-1ZM18,13a1,1,0,0,0,1-1V2a1,1,0,0,0-1-1H2A1,1,0,0,0,1,2V12a1,1,0,0,0,1,1Z" transform="translate(2 6)"/>
  </g>
</svg>
