<svg xmlns="http://www.w3.org/2000/svg" width="20" height="22" viewBox="0 0 20 22">
  <g id="Group_12" data-name="Group 12" transform="translate(-2 -1)">
    <path id="Path_21" data-name="Path 21" d="M8,7A1,1,0,0,1,7,6V2A1,1,0,0,1,9,2V6A1,1,0,0,1,8,7Z"/>
    <path id="Path_22" data-name="Path 22" d="M16,7a1,1,0,0,1-1-1V2a1,1,0,0,1,2,0V6A1,1,0,0,1,16,7Z"/>
    <path id="Rectangle_3" data-name="Rectangle 3" d="M2-1H16a3,3,0,0,1,3,3V16a3,3,0,0,1-3,3H2a3,3,0,0,1-3-3V2A3,3,0,0,1,2-1ZM16,17a1,1,0,0,0,1-1V2a1,1,0,0,0-1-1H2A1,1,0,0,0,1,2V16a1,1,0,0,0,1,1Z" transform="translate(3 4)"/>
    <path id="Path_23" data-name="Path 23" d="M21,11H3A1,1,0,0,1,3,9H21a1,1,0,0,1,0,2Z"/>
    <path id="Path_24" data-name="Path 24" d="M8.01,15H8a1,1,0,0,1,0-2h.01a1,1,0,0,1,0,2Z"/>
    <path id="Path_25" data-name="Path 25" d="M12.01,15H12a1,1,0,0,1,0-2h.01a1,1,0,0,1,0,2Z"/>
    <path id="Path_26" data-name="Path 26" d="M16.01,15H16a1,1,0,1,1,0-2h.01a1,1,0,0,1,0,2Z"/>
    <path id="Path_27" data-name="Path 27" d="M8.01,19H8a1,1,0,0,1,0-2h.01a1,1,0,0,1,0,2Z"/>
    <path id="Path_28" data-name="Path 28" d="M12.01,19H12a1,1,0,0,1,0-2h.01a1,1,0,0,1,0,2Z"/>
    <path id="Path_29" data-name="Path 29" d="M16.01,19H16a1,1,0,1,1,0-2h.01a1,1,0,0,1,0,2Z"/>
  </g>
</svg>
