<svg xmlns="http://www.w3.org/2000/svg" width="18" height="22" viewBox="0 0 18 22">
  <g id="Group_8" data-name="Group 8" transform="translate(-3 -1)">
    <path id="Rectangle_2" data-name="Rectangle 2" d="M1-1H7A2,2,0,0,1,9,1V3A2,2,0,0,1,7,5H1A2,2,0,0,1-1,3V1A2,2,0,0,1,1-1ZM7,3V1H1V3Z" transform="translate(8 2)"/>
    <path id="Path_6" data-name="Path 6" d="M18,23H6a3,3,0,0,1-3-3V6A3,3,0,0,1,6,3H8A1,1,0,0,1,8,5H6A1,1,0,0,0,5,6V20a1,1,0,0,0,1,1H18a1,1,0,0,0,1-1V6a1,1,0,0,0-1-1H16a1,1,0,0,1,0-2h2a3,3,0,0,1,3,3V20A3,3,0,0,1,18,23Z"/>
    <path id="Path_7" data-name="Path 7" d="M11,17a1,1,0,0,1-.707-.293l-2-2a1,1,0,0,1,1.414-1.414L11,14.586l3.293-3.293a1,1,0,0,1,1.414,1.414l-4,4A1,1,0,0,1,11,17Z"/>
  </g>
</svg>
